<svg id="Layer_1" data-name="Layer 1" xmlns="http://www.w3.org/2000/svg" xmlns:xlink="http://www.w3.org/1999/xlink" viewBox="0 0 93.78 27.31"><defs><style>.cls-1,.cls-3{fill:#fff;}.cls-1,.cls-2,.cls-6{stroke:#000;}.cls-1,.cls-2,.cls-4,.cls-6{stroke-miterlimit:10;}.cls-2{fill:url(#linear-gradient);}.cls-4,.cls-6{fill:none;}.cls-4{stroke:#fff;stroke-width:0.25px;}.cls-5{font-size:10.98px;font-family:Mermaid-Bold, Mermaid;font-weight:700;}</style><linearGradient id="linear-gradient" x1="-1345.93" y1="-62.65" x2="-1319.23" y2="-62.65" gradientTransform="translate(-1317 -49) rotate(180)" gradientUnits="userSpaceOnUse"><stop offset="0.01" stop-color="#faae7b"/><stop offset="0.25" stop-color="#cc8b79"/><stop offset="0.48" stop-color="#9f6976"/><stop offset="0.72" stop-color="#714674"/><stop offset="1" stop-color="#432371"/></linearGradient></defs><rect class="cls-1" x="2.48" y="1.18" width="88.82" height="24.95" rx="12.47" transform="translate(93.78 27.31) rotate(-180)"/><path class="cls-2" d="M28.93,1.18v25H14.71A12.48,12.48,0,0,1,2.23,13.65h0A12.48,12.48,0,0,1,14.71,1.18H28.93"/><path class="cls-3" d="M10.88,16.3S10,11.79,12.64,9.36C12.64,9.36,5.19,11.09,10.88,16.3Z"/><path class="cls-3" d="M12.51,9.46s4.67-2.26,8.07-.11C20.58,9.35,16.54,1.7,12.51,9.46Z"/><path class="cls-3" d="M10.84,16.18s2.71,3.86,6.35,3.65C17.19,19.83,10.62,24.11,10.84,16.18Z"/><path class="cls-3" d="M22.68,15.64s-2.11,3.94-5.57,4.2C17.11,19.84,23.79,23,22.68,15.64Z"/><path class="cls-3" d="M13.88,6.92a9.39,9.39,0,0,0-1.51,2.21,6.53,6.53,0,0,0-2.12.86A7.57,7.57,0,0,1,13.88,6.92Z"/><path class="cls-3" d="M9.18,14.77a7,7,0,0,0,1.4,1.61,6.49,6.49,0,0,0,.2,2.28A5.58,5.58,0,0,1,9.18,14.77Z"/><path class="cls-3" d="M22.81,9.66a6.79,6.79,0,0,0-2-.61,9.61,9.61,0,0,0-1.65-2.22A7.27,7.27,0,0,1,22.81,9.66Z"/><path class="cls-3" d="M23.05,17.94A7.15,7.15,0,0,0,23,15.8a6.61,6.61,0,0,0,1.3-1.88A7,7,0,0,1,23.05,17.94Z"/><path class="cls-3" d="M15.19,21.07a7,7,0,0,0,2-.81,6.4,6.4,0,0,0,2.22.54A4.62,4.62,0,0,1,15.19,21.07Z"/><path class="cls-3" d="M20.53,9.31s2.44,1.47,2.15,6.38C22.68,15.69,27.86,10.86,20.53,9.31Z"/><ellipse class="cls-4" cx="16.66" cy="13.92" rx="8.03" ry="7.97"/><text class="cls-5" transform="translate(33 16.67)">Portfolio</text><rect class="cls-6" x="2.73" y="1.18" width="88.82" height="24.95" rx="12.47" transform="translate(94.28 27.31) rotate(-180)"/></svg>