<svg id="Layer_1" data-name="Layer 1" xmlns="http://www.w3.org/2000/svg" xmlns:xlink="http://www.w3.org/1999/xlink" viewBox="0 0 93.92 27.35"><defs><style>.cls-1,.cls-3{fill:#fff;}.cls-1,.cls-2,.cls-6{stroke:#000;}.cls-1,.cls-2,.cls-4,.cls-6{stroke-miterlimit:10;}.cls-2{stroke-width:0.5px;fill:url(#linear-gradient);}.cls-4,.cls-6{fill:none;}.cls-4{stroke:#fff;stroke-width:0.25px;}.cls-5{font-size:10.84px;font-family:Mermaid-Bold, Mermaid;font-weight:700;}</style><linearGradient id="linear-gradient" x1="-1346.22" y1="111.32" x2="-1319.85" y2="111.32" gradientTransform="translate(-1317 125) rotate(180)" gradientUnits="userSpaceOnUse"><stop offset="0.01" stop-color="#e4b1ab"/><stop offset="0.2" stop-color="#e39695"/><stop offset="0.43" stop-color="#df7373"/><stop offset="0.49" stop-color="#dd6a69"/><stop offset="0.61" stop-color="#db5a58"/><stop offset="0.71" stop-color="#da5552"/><stop offset="1" stop-color="#cc444b"/></linearGradient></defs><rect class="cls-1" x="3.09" y="1.35" width="87.73" height="24.64" rx="12.32" transform="translate(93.92 27.35) rotate(-180)"/><path class="cls-2" d="M29.22,1.35V26h-14A12.32,12.32,0,0,1,2.85,13.68h0A12.32,12.32,0,0,1,15.17,1.35H29.22"/><path class="cls-3" d="M11.39,16.29s-.85-4.46,1.73-6.86C13.12,9.43,5.77,11.14,11.39,16.29Z"/><path class="cls-3" d="M13,9.53s4.62-2.23,8-.1C21,9.43,17,1.87,13,9.53Z"/><path class="cls-3" d="M11.35,16.17S14,20,17.63,19.78C17.63,19.78,11.13,24,11.35,16.17Z"/><path class="cls-3" d="M23.05,15.63S21,19.52,17.54,19.78C17.54,19.78,24.14,22.93,23.05,15.63Z"/><path class="cls-3" d="M14.36,7a9.29,9.29,0,0,0-1.5,2.18,6.48,6.48,0,0,0-2.1.86A7.55,7.55,0,0,1,14.36,7Z"/><path class="cls-3" d="M9.71,14.78a6.63,6.63,0,0,0,1.38,1.58,6.63,6.63,0,0,0,.2,2.26A5.5,5.5,0,0,1,9.71,14.78Z"/><path class="cls-3" d="M23.18,9.73a7,7,0,0,0-2-.61,9.47,9.47,0,0,0-1.63-2.18A7.18,7.18,0,0,1,23.18,9.73Z"/><path class="cls-3" d="M23.41,17.91a7,7,0,0,0-.06-2.11,6.38,6.38,0,0,0,1.28-1.87A6.9,6.9,0,0,1,23.41,17.91Z"/><path class="cls-3" d="M15.65,21a6.67,6.67,0,0,0,2-.8,6.56,6.56,0,0,0,2.2.54A4.56,4.56,0,0,1,15.65,21Z"/><path class="cls-3" d="M20.92,9.38s2.41,1.45,2.13,6.31C23.05,15.69,28.16,10.92,20.92,9.38Z"/><ellipse class="cls-4" cx="17.1" cy="13.94" rx="7.93" ry="7.87"/><text class="cls-5" transform="translate(33.24 16.65)">Profle</text><rect class="cls-6" x="3.34" y="1.35" width="87.73" height="24.64" rx="12.32" transform="translate(94.41 27.35) rotate(-180)"/></svg>